#!OML:ASF Y:\EmotionMaleHayes\Project 1\Capture day 1\Session 1\Male1.ASF
:FULLY-SPECIFIED
:DEGREES
118
root -16.7021 17.2016 3.8963 171.869 75.3694 163.217
lowerback 21.0199 3.38977 4.51333
upperback 5.64647 5.95643 2.215
thorax -5.34635 3.05818 -1.67275
lowerneck -20.9887 -4.71199 -0.98361
upperneck 12.2896 -5.9373 -0.7386
head 7.17874 -2.96232 -0.799089
rclavicle 6.2816e-014 -7.95139e-015
rhumerus 2.85813 39.5031 -84.5589
rradius 66.9527
rwrist -9.49918
rhand -19.439 -22.2365
rfingers 7.12502
rthumb 6.88135 -52.1047
lclavicle 6.2816e-014 -7.95139e-015
lhumerus -63.2739 -38.1842 72.3199
lradius 58.157
lwrist 15.5506
lhand -17.4637 -17.0763
lfingers 7.12502
lthumb 8.78785 12.7208
rfemur 2.08791 -5.30092 23.0748
rtibia 27.3127
rfoot -13.1457 -6.41927
rtoes 2.95887
lfemur -31.8072 19.9342 -14.4315
ltibia 60.1211
lfoot -13.0067 1.85394
ltoes -22.5858
119
root -16.4373 17.3445 3.82705 172.807 75.3344 164.278
lowerback 20.661 3.47597 4.9538
upperback 5.68551 6.12377 2.08324
thorax -5.04698 3.14772 -2.06456
lowerneck -20.9127 -4.86134 -1.11561
upperneck 12.4537 -6.13917 -0.538914
head 7.23113 -3.04542 -0.738832
rclavicle 1.35174e-014 5.88403e-014
rhumerus 3.48364 40.7193 -84.189
rradius 68.7515
rwrist -7.95726
rhand -17.5481 -22.9058
rfingers 7.12502
rthumb 8.70643 -52.7062
lclavicle 1.35174e-014 5.88403e-014
lhumerus -64.5986 -37.4649 73.7867
lradius 58.2965
lwrist 15.8386
lhand -17.5094 -17.3753
lfingers 7.12502
lthumb 8.74378 12.4236
rfemur 3.44062 -5.56826 22.659
rtibia 26.3002
rfoot -10.007 -5.62085
rtoes 3.34939
lfemur -31.9213 20.3569 -15.1301
ltibia 57.9079
lfoot -13.0358 2.14269
ltoes -21.6364
120
root -16.1971 17.481 3.75935 174.722 75.0235 166.23
lowerback 20.4573 3.43009 5.61029
upperback 5.64714 6.18192 2.04363
thorax -4.90368 3.17771 -2.46745
lowerneck -21.1794 -5.03108 -1.12542
upperneck 12.8663 -6.36121 -0.556154
head 7.41099 -3.15017 -0.784951
rclavicle -1.17681e-013 -2.06736e-014
rhumerus 4.26209 42.3639 -83.4281
rradius 70.69
rwrist -8.42537
rhand -17.5066 -23.273
rfingers 7.12502
rthumb 8.74646 -53.0718
lclavicle -1.17681e-013 -2.06736e-014
lhumerus -65.701 -36.5121 75.1748
lradius 58.3174
lwrist 16.0679
lhand -17.741 -17.5631
lfingers 7.12502
lthumb 8.52028 12.245
rfemur 4.39847 -5.98379 22.5257
rtibia 25.4581
rfoot -6.788 -5.23768
rtoes 5.17297
lfemur -32.4503 20.4728 -15.8498
ltibia 55.8406
lfoot -12.822 2.34882
ltoes -21.7143
121
root -15.9342 17.6027 3.70574 177.651 75.3117 169.312
lowerback 20.2873 3.62511 6.1927
upperback 5.59173 6.54525 2.1232
thorax -4.79109 3.35442 -2.77227
lowerneck -21.554 -5.20272 -1.13642
upperneck 13.4595 -6.58424 -0.580008
head 7.66951 -3.25365 -0.840985
rclavicle -5.725e-014 2.22639e-014
rhumerus 4.91081 43.8281 -82.8057
rradius 72.5445
rwrist -9.02268
rhand -17.2863 -23.4429
rfingers 7.12502
rthumb 8.95905 -53.2327
lclavicle -5.725e-014 2.22639e-014
lhumerus -66.8698 -35.4878 76.5091
lradius 58.3426
lwrist 16.3241
lhand -18.2371 -17.6257
lfingers 7.12502
lthumb 8.04149 12.2013
rfemur 5.3836 -5.78761 23.0598
rtibia 24.6192
rfoot -3.63765 -5.14699
rtoes 8.36019
lfemur -32.5199 21.4075 -15.8105
ltibia 53.5182
lfoot -12.1865 2.3999
ltoes -22.7884
122
root -15.6724 17.7152 3.63938 179.827 75.3125 171.538
lowerback 20.0245 3.72251 6.78928
upperback 5.44417 6.7571 2.01152
thorax -4.71034 3.45089 -3.24751
lowerneck -21.6171 -5.36584 -0.999342
upperneck 13.8612 -6.85435 -0.556942
head 7.81012 -3.36875 -0.899221
rclavicle -4.77083e-014 -1.27222e-014
rhumerus 5.30006 45.0554 -82.5253
rradius 74.4057
rwrist -9.53491
rhand -17.2906 -23.5078
rfingers 7.12502
rthumb 8.9549 -53.2978
lclavicle -4.77083e-014 -1.27222e-014
lhumerus -68.2433 -34.6002 77.755
lradius 58.612
lwrist 16.7874
lhand -18.5282 -17.9373
lfingers 7.12502
lthumb 7.7605 11.9003
rfemur 6.30585 -5.87928 23.2086
rtibia 23.8463
rfoot -0.800474 -5.12488
rtoes 12.9462
lfemur -32.5651 21.8136 -16.1705
ltibia 51.0315
lfoot -11.4726 2.30474
ltoes -23.4092
123
root -15.4047 17.8228 3.55989 179.455 75.1478 170.918
lowerback 19.8961 3.75089 7.23714
upperback 4.97737 6.80316 1.28975
thorax -4.99443 3.42941 -4.28298
lowerneck -21.4631 -5.51207 -0.554498
upperneck 14.2999 -7.25966 -0.234432
head 7.9278 -3.49842 -0.918779
rclavicle -6.36111e-015 -2.22639e-014
rhumerus 5.05981 45.8508 -83.2964
rradius 76.2414
rwrist -10.0021
rhand -17.2378 -23.5037
rfingers 7.12502
rthumb 9.00589 -53.2915
lclavicle -6.36111e-015 -2.22639e-014
lhumerus -69.873 -34.123 78.5463
lradius 58.8761
lwrist 17.4358
lhand -18.3076 -18.5081
lfingers 7.12502
lthumb 7.97342 11.3215
rfemur 7.08809 -6.3695 22.2929
rtibia 23.1352
rfoot 1.49168 -4.94597
rtoes 17.6978
lfemur -32.5834 21.8315 -17.6091
ltibia 48.2416
lfoot -10.7752 2.01464
ltoes -22.1139
124
root -15.1393 17.915 3.49639 180.002 74.9862 171.27
lowerback 19.5688 3.84723 7.42856
upperback 4.70283 6.90372 0.950572
thorax -5.03884 3.45762 -4.75347
lowerneck -21.3781 -5.64191 -0.531263
upperneck 14.522 -7.53657 0.215952
head 8.00666 -3.57716 -0.811588
rclavicle -7.39479e-014 -5.40694e-014
rhumerus 5.3473 46.7721 -83.2751
rradius 77.9127
rwrist -10.5203
rhand -16.9259 -23.6082
rfingers 7.12502
rthumb 9.30687 -53.3827
lclavicle -7.39479e-014 -5.40694e-014
lhumerus -71.0391 -33.1703 79.4281
lradius 58.818
lwrist 17.9449
lhand -18.2643 -18.7971
lfingers 7.12502
lthumb 8.01521 11.0309
rfemur 7.65488 -6.7618 21.8527
rtibia 22.7646
rfoot 3.03818 -4.92075
rtoes 20.5885
lfemur -32.6805 22.1401 -18.7037
ltibia 45.7125
lfoot -9.68989 1.54932
ltoes -19.0393
125
root -14.8739 17.9947 3.4405 181.38 74.9838 172.562
lowerback 19.0078 4.061 7.371
upperback 4.65588 7.11941 0.989038
thorax -4.77885 3.57231 -4.66903
lowerneck -21.307 -5.79442 -0.766478
upperneck 14.4704 -7.73625 0.540075
head 8.00149 -3.65165 -0.690688
rclavicle -3.02153e-014 4.92986e-014
rhumerus 6.20993 47.8117 -82.3371
rradius 79.5676
rwrist -11.2389
rhand -16.582 -23.8148
rfingers 7.12502
rthumb 9.63866 -53.5743
lclavicle -3.02153e-014 4.92986e-014
lhumerus -71.8299 -31.7901 80.4617
lradius 58.5665
lwrist 18.282
lhand -18.6728 -18.6116
lfingers 7.12502
lthumb 7.62095 11.2311
rfemur 8.04751 -6.73363 21.9266
rtibia 22.7711
rfoot 3.92505 -4.89247
rtoes 20.428
lfemur -32.7506 22.696 -19.3571
ltibia 43.4318
lfoot -8.2788 1.11339
ltoes -17.6948
126
root -14.6097 18.0674 3.38775 182.174 74.9279 173.365
lowerback 18.2958 4.39108 6.79558
upperback 4.82519 7.40219 1.32081
thorax -4.30722 3.74352 -3.97231
lowerneck -21.4955 -6.00251 -1.02604
upperneck 14.5843 -7.90394 0.357862
head 8.07405 -3.76228 -0.740711
rclavicle 6.04305e-014 4.45278e-014
rhumerus 7.24834 48.6824 -80.7815
rradius 81.4168
rwrist -12.2057
rhand -16.1577 -23.4422
rfingers 7.12502
rthumb 10.048 -53.1824
lclavicle 6.04305e-014 4.45278e-014
lhumerus -72.1927 -30.161 81.6721
lradius 58.1242
lwrist 18.3589
lhand -18.7801 -19.3606
lfingers 7.12502
lthumb 7.51745 10.4858
rfemur 8.44654 -6.65906 21.9819
rtibia 23.1535
rfoot 4.21386 -4.95609
rtoes 19.8275
lfemur -32.6878 23.3932 -20.1817
ltibia 41.1915
lfoot -6.80676 0.923759
ltoes -18.8245
127
root -14.3421 18.1125 3.33755 183.848 74.8084 174.734
lowerback 17.5695 4.61803 6.84117
upperback 4.62229 7.62924 1.18765
thorax -4.08983 3.85194 -4.11258
lowerneck -21.4226 -6.16996 -0.935618
upperneck 14.7188 -8.20502 0.569602
head 8.11463 -3.87478 -0.724799
rclavicle 3.02153e-014 -7.95139e-015
rhumerus 7.48759 48.9638 -80.7104
rradius 83.1063
rwrist -12.4531
rhand -14.5202 -22.899
rfingers 7.12502
rthumb 11.6275 -52.5564
lclavicle 3.02153e-014 -7.95139e-015
lhumerus -72.8188 -29.0746 82.1401
lradius 58.0272
lwrist 18.739
lhand -18.4451 -19.3171
lfingers 7.12502
lthumb 7.84078 10.5175
rfemur 8.36227 -6.54551 22.3836
rtibia 23.9679
rfoot 4.13043 -5.50922
rtoes 20.8289
lfemur -33.1219 24.0928 -21.0311
ltibia 39.1619
lfoot -5.56919 0.650737
ltoes -20.5869
128
root -14.0736 18.168 3.28625 185.321 74.493 176.805
lowerback 17.7935 4.61894 7.21565
upperback 4.62254 7.7197 1.15001
thorax -4.14223 3.8952 -4.39615
lowerneck -21.2425 -6.32486 -0.798992
upperneck 14.7233 -8.49667 0.760717
head 8.09069 -3.98543 -0.715124
rclavicle 4.53229e-014 -5.08889e-014
rhumerus 8.00304 49.2446 -80.4448
rradius 84.7157
rwrist -12.4665
rhand -12.3183 -22.7788
rfingers 7.12502
rthumb 13.7503 -52.3044
lclavicle 4.53229e-014 -5.08889e-014
lhumerus -73.3493 -27.7861 82.3881
lradius 58.0741
lwrist 19.1442
lhand -18.0674 -18.8954
lfingers 7.12502
lthumb 8.2053 10.9253
rfemur 9.13692 -6.68186 22.8023
rtibia 24.9375
rfoot 3.10447 -5.63632
rtoes 19.7056
lfemur -32.1869 24.3267 -21.0955
ltibia 36.9207
lfoot -4.50866 0.627735
ltoes -18.9921
129
root -13.8177 18.1917 3.23541 187.048 74.1707 178.494
lowerback 17.4002 4.67358 7.42931
upperback 4.50758 7.78742 1.06908
thorax -4.00742 3.92814 -4.57223
lowerneck -21.3339 -6.5134 -0.643103
upperneck 14.7613 -8.82364 0.875648
head 8.11905 -4.11677 -0.747725
rclavicle -6.52014e-014 7.95139e-015
rhumerus 8.88393 49.5898 -79.8801
rradius 86.3757
rwrist -13.2174
rhand -12.1582 -22.9374
rfingers 7.12502
rthumb 13.9046 -52.4525
lclavicle -6.52014e-014 7.95139e-015
lhumerus -73.6547 -26.2798 82.4853
lradius 57.7006
lwrist 19.1787
lhand -17.8847 -19.2126
lfingers 7.12502
lthumb 8.38157 10.6011
rfemur 8.9964 -7.02113 23.1822
rtibia 26.3655
rfoot 2.18087 -5.99149
rtoes 19.7649
lfemur -32.2397 24.6656 -21.6372
ltibia 35.0606
lfoot -3.37717 0.48094
ltoes -15.0238
130
root -13.5638 18.2031 3.17776 187.212 73.9214 178.514
lowerback 16.9577 4.79656 7.2778
upperback 4.42059 7.86515 0.855407
thorax -3.84432 3.96913 -4.68199
lowerneck -21.39 -6.66713 -0.459126
upperneck 14.6731 -9.09666 0.930181
head 8.09401 -4.2306 -0.793254
rclavicle 3.97569e-015 -1.11319e-014
rhumerus 9.71532 49.8322 -79.4005
rradius 87.918
rwrist -14.1529
rhand -13.588 -23.036
rfingers 7.12502
rthumb 12.5263 -52.6406
lclavicle 3.97569e-015 -1.11319e-014
lhumerus -73.7609 -24.7959 82.4743
lradius 57.0694
lwrist 19.1711
lhand -17.3953 -20.0253
lfingers 7.12502
lthumb 8.85389 9.76898
rfemur 8.71427 -7.39822 22.9442
rtibia 28.0509
rfoot 1.23778 -6.50244
rtoes 21.1836
lfemur -32.2342 24.9949 -22.8323
ltibia 33.0742
lfoot -2.56223 0.292116
ltoes -11.4978
